# xmcd
# 
# Track frame offsets:
#     150
#     11830
#     22252
#     35282
#     45974
#     59143
#     73729
#     87712
#     103284
#     129825
#     142071
#     159704
#     176208
#     199392
#     216254
# 
# Disc length: 3025
# 
# Revision: 0
# Processed by: cddbd v1.5.2PL0 Copyright (c) Steve Scherf et al.
# Submitted via: fre:ac v1.0.31
# 
DISCID=ee0bcf0f
DTITLE=Various Artist - The Only Folk Collection You'll Ever Need
DYEAR=2014
DGENRE=Folk
TTITLE0=I Ain't Marching Anymore
TTITLE1=Mr. Tambourinr Man
TTITLE2=If I Had A Hammer
TTITLE3=Little Bit Of Rain
TTITLE4=Catch the Wind
TTITLE5=There But For Fortune
TTITLE6=Early Mornin' Rain
TTITLE7=I shall Not Be Moved
TTITLE8=Thirsty Boots
TTITLE9=If I were A Carpenter
TTITLE10=No Regrets
TTITLE11=Turn, Turn, Turn/ To Everything There is a season
TTITLE12=Who Knows Where the Time Goes?
TTITLE13=Angel From Montgomery
TTITLE14=Ain't No Grave Gona Hold My Body Down
EXTD=0disc 2
EXTT0=
EXTT1=0the v0byrda
EXTT2=Pete Seeger
EXTT3=Fred Neil
EXTT4=Donovan
EXTT5=Joan Baez
EXTT6=0gordan Lightfoot
EXTT7=Mississippi John Hurt
EXTT8=Eric Anderson
EXTT9=Tim Hardin
EXTT10=Tom Rush
EXTT11=Judy Collins
EXTT12=Fairport Convention
EXTT13=John Prine
EXTT14=Odetta
PLAYORDER=
